# Blender v2.79 (sub 0) OBJ File: ''
# www.blender.org
mtllib lowPolyBarge.mtl
o Cube
v 2.471982 -1.000000 -0.830130
v 2.471982 -1.000000 0.830130
v -2.455083 -1.000000 0.830130
v -2.455082 -1.000000 -0.830131
v 2.976095 1.000000 -1.369583
v 2.976094 1.000000 1.217217
v -2.959195 1.000000 1.217216
v -2.959195 1.000000 -1.369583
v 4.740367 0.363397 -0.504298
v 4.740367 0.363397 0.504299
v 4.740368 1.371994 -0.504297
v 4.740367 1.371994 0.504299
v -4.784983 0.304443 0.509046
v -4.784982 0.304443 -0.509047
v -4.784983 1.322536 0.509046
v -4.784982 1.322536 -0.509047
v -5.208693 0.702877 0.415136
v -5.208692 0.702877 -0.415138
v -5.588557 1.259570 0.415136
v -5.588556 1.259570 -0.415138
v 5.179407 0.944344 -0.348395
v 5.179407 0.944344 0.348397
v 5.410944 1.293805 -0.348395
v 5.410943 1.293805 0.348398
v -5.840908 2.882615 0.509046
v -5.840908 2.882615 -0.509047
v -6.687448 2.882615 0.509046
v -6.687447 2.882615 -0.509048
v 5.566510 2.880935 -0.504297
v 5.566509 2.880935 0.504299
v 6.485374 2.880935 -0.504297
v 6.485373 2.880935 0.504300
vn 0.0000 -1.0000 0.0000
vn 0.0000 1.0000 0.0000
vn 0.3148 -0.1728 0.9333
vn -0.0000 -0.1900 0.9818
vn 0.1740 0.9848 0.0000
vn 0.0000 -0.2604 -0.9655
vn -0.8771 0.4802 -0.0000
vn 0.3632 -0.2231 -0.9046
vn 0.5152 -0.8571 0.0000
vn -0.2063 0.9785 -0.0000
vn -0.1616 -0.0390 -0.9861
vn -0.3457 -0.2208 -0.9120
vn -0.4885 -0.8726 -0.0000
vn -0.2992 -0.1704 0.9388
vn -0.8260 -0.5636 -0.0000
vn -0.6850 -0.7285 -0.0000
vn -0.0542 -0.0661 0.9963
vn -0.1616 -0.0390 0.9861
vn 0.8336 -0.5523 0.0000
vn 0.2910 -0.0496 -0.9554
vn 0.2910 -0.0496 0.9554
vn 0.7978 -0.6029 0.0000
vn -0.0542 -0.0661 -0.9963
vn -0.8281 -0.5606 -0.0000
vn 0.8281 0.5605 0.0000
vn 0.0919 -0.1063 0.9901
vn 0.0919 -0.1063 -0.9901
vn 0.8281 -0.5606 0.0000
usemtl Material
s off
f 1//1 2//1 3//1 4//1
f 5//2 8//2 7//2 6//2
f 6//3 2//3 10//3 12//3
f 2//4 6//4 7//4 3//4
f 7//5 8//5 16//5 15//5
f 5//6 1//6 4//6 8//6
f 11//7 12//7 30//7 29//7
f 1//8 5//8 11//8 9//8
f 2//9 1//9 9//9 10//9
f 5//10 6//10 12//10 11//10
f 16//11 14//11 18//11 20//11
f 8//12 4//12 14//12 16//12
f 4//13 3//13 13//13 14//13
f 3//14 7//14 15//14 13//14
f 17//15 19//15 20//15 18//15
f 14//16 13//16 17//16 18//16
f 19//17 15//17 25//17 27//17
f 13//18 15//18 19//18 17//18
f 21//19 23//19 24//19 22//19
f 9//20 11//20 23//20 21//20
f 12//21 10//21 22//21 24//21
f 10//22 9//22 21//22 22//22
f 25//2 26//2 28//2 27//2
f 16//23 20//23 28//23 26//23
f 20//24 19//24 27//24 28//24
f 15//25 16//25 26//25 25//25
f 29//2 30//2 32//2 31//2
f 12//26 24//26 32//26 30//26
f 23//27 11//27 29//27 31//27
f 24//28 23//28 31//28 32//28
